<mxfile host="app.diagrams.net" modified="2021-03-28T06:36:24.425Z" agent="5.0 (Macintosh; Intel Mac OS X 10_15_7) AppleWebKit/537.36 (KHTML, like Gecko) Chrome/86.0.4240.193 Safari/537.36" etag="VlOYuvG70ld9Q_luuSNj" version="14.5.3" type="github">
  <diagram id="-ahcEEFHBMHVNG3VfpO8" name="Page-1">
    <mxGraphModel dx="946" dy="536" grid="1" gridSize="10" guides="1" tooltips="1" connect="1" arrows="1" fold="1" page="1" pageScale="1" pageWidth="827" pageHeight="1169" math="0" shadow="0">
      <root>
        <mxCell id="0" />
        <mxCell id="1" parent="0" />
        <mxCell id="Uoi0qUkUmW6noMAwvUM0-11" style="edgeStyle=orthogonalEdgeStyle;rounded=0;orthogonalLoop=1;jettySize=auto;html=1;" edge="1" parent="1" source="Uoi0qUkUmW6noMAwvUM0-1" target="Uoi0qUkUmW6noMAwvUM0-3">
          <mxGeometry relative="1" as="geometry" />
        </mxCell>
        <mxCell id="Uoi0qUkUmW6noMAwvUM0-1" value="AbstractApplicationContext#refresh" style="rounded=1;whiteSpace=wrap;html=1;fillColor=#ffe6cc;strokeColor=#d79b00;" vertex="1" parent="1">
          <mxGeometry x="250" y="110" width="240" height="50" as="geometry" />
        </mxCell>
        <mxCell id="Uoi0qUkUmW6noMAwvUM0-12" style="edgeStyle=orthogonalEdgeStyle;rounded=0;orthogonalLoop=1;jettySize=auto;html=1;" edge="1" parent="1" source="Uoi0qUkUmW6noMAwvUM0-3" target="Uoi0qUkUmW6noMAwvUM0-10">
          <mxGeometry relative="1" as="geometry" />
        </mxCell>
        <mxCell id="Uoi0qUkUmW6noMAwvUM0-13" style="edgeStyle=orthogonalEdgeStyle;rounded=0;orthogonalLoop=1;jettySize=auto;html=1;exitX=1;exitY=0.5;exitDx=0;exitDy=0;entryX=0;entryY=0.5;entryDx=0;entryDy=0;" edge="1" parent="1" source="Uoi0qUkUmW6noMAwvUM0-3" target="Uoi0qUkUmW6noMAwvUM0-4">
          <mxGeometry relative="1" as="geometry" />
        </mxCell>
        <mxCell id="Uoi0qUkUmW6noMAwvUM0-14" style="edgeStyle=orthogonalEdgeStyle;rounded=0;orthogonalLoop=1;jettySize=auto;html=1;exitX=1;exitY=0.5;exitDx=0;exitDy=0;entryX=0;entryY=0.5;entryDx=0;entryDy=0;" edge="1" parent="1" source="Uoi0qUkUmW6noMAwvUM0-3" target="Uoi0qUkUmW6noMAwvUM0-6">
          <mxGeometry relative="1" as="geometry" />
        </mxCell>
        <mxCell id="Uoi0qUkUmW6noMAwvUM0-3" value="ServletWebServerApplicationContext#onRefresh" style="rounded=1;whiteSpace=wrap;html=1;fillColor=#ffe6cc;strokeColor=#d79b00;" vertex="1" parent="1">
          <mxGeometry x="230" y="230" width="280" height="50" as="geometry" />
        </mxCell>
        <mxCell id="Uoi0qUkUmW6noMAwvUM0-15" style="edgeStyle=orthogonalEdgeStyle;rounded=0;orthogonalLoop=1;jettySize=auto;html=1;exitX=1;exitY=0.5;exitDx=0;exitDy=0;entryX=0;entryY=0.5;entryDx=0;entryDy=0;" edge="1" parent="1" source="Uoi0qUkUmW6noMAwvUM0-4" target="Uoi0qUkUmW6noMAwvUM0-7">
          <mxGeometry relative="1" as="geometry" />
        </mxCell>
        <mxCell id="Uoi0qUkUmW6noMAwvUM0-4" value="获取ServletWebServerFactory" style="rounded=1;whiteSpace=wrap;html=1;fillColor=#dae8fc;strokeColor=#6c8ebf;" vertex="1" parent="1">
          <mxGeometry x="612.5" y="170" width="213" height="50" as="geometry" />
        </mxCell>
        <mxCell id="Uoi0qUkUmW6noMAwvUM0-16" style="edgeStyle=orthogonalEdgeStyle;rounded=0;orthogonalLoop=1;jettySize=auto;html=1;exitX=1;exitY=0.5;exitDx=0;exitDy=0;entryX=0;entryY=0.5;entryDx=0;entryDy=0;" edge="1" parent="1" source="Uoi0qUkUmW6noMAwvUM0-6" target="Uoi0qUkUmW6noMAwvUM0-9">
          <mxGeometry relative="1" as="geometry" />
        </mxCell>
        <mxCell id="Uoi0qUkUmW6noMAwvUM0-6" value="利用ServletWebServerFactory创建WebServer" style="rounded=1;whiteSpace=wrap;html=1;fillColor=#dae8fc;strokeColor=#6c8ebf;" vertex="1" parent="1">
          <mxGeometry x="612.5" y="280" width="268" height="50" as="geometry" />
        </mxCell>
        <mxCell id="Uoi0qUkUmW6noMAwvUM0-7" value="&lt;div&gt;JettyServletWebServerFactory&lt;/div&gt;&lt;div&gt;TomcatServletWebServerFactory&lt;/div&gt;&lt;div&gt;UndertowServletWebServerFactory&lt;/div&gt;" style="rounded=1;whiteSpace=wrap;html=1;fillColor=#dae8fc;strokeColor=#6c8ebf;" vertex="1" parent="1">
          <mxGeometry x="930" y="155" width="210" height="80" as="geometry" />
        </mxCell>
        <mxCell id="Uoi0qUkUmW6noMAwvUM0-9" value="&lt;div&gt;JettyWebServer&lt;/div&gt;&lt;div&gt;TomcatWebServer&lt;/div&gt;&lt;div&gt;UndertowServletWebServer&lt;/div&gt;" style="rounded=1;whiteSpace=wrap;html=1;fillColor=#dae8fc;strokeColor=#6c8ebf;" vertex="1" parent="1">
          <mxGeometry x="930" y="265" width="210" height="80" as="geometry" />
        </mxCell>
        <mxCell id="Uoi0qUkUmW6noMAwvUM0-10" value="ServletWebServerApplicationContext#finishRefresh" style="rounded=1;whiteSpace=wrap;html=1;fillColor=#ffe6cc;strokeColor=#d79b00;" vertex="1" parent="1">
          <mxGeometry x="220" y="340" width="300" height="50" as="geometry" />
        </mxCell>
      </root>
    </mxGraphModel>
  </diagram>
</mxfile>
